<?xml version="1.0" encoding="utf-8"?>
<!-- Generator: Adobe Illustrator 18.1.1, SVG Export Plug-In . SVG Version: 6.00 Build 0)  -->
<svg version="1.1" id="Layer_1" xmlns="http://www.w3.org/2000/svg" xmlns:xlink="http://www.w3.org/1999/xlink" x="0px" y="0px"
	 viewBox="0 0 80 80" enable-background="new 0 0 80 80" xml:space="preserve">
<g enable-background="new    ">
	<path d="M40.1,32.1L29.9,55.7h-8L2.5,6.9h8l16,40.4l10.4-24L30.5,6.9h8l15.1,39.3L69.8,6.9h8.1L57.8,55.7h-8.1L40.1,32.1z"/>
</g>
<g>
	<path d="M12.6,70.6l-1.4,4H10l-2.7-8.2h1.2l2.2,6.8l1.4-4.1l-0.9-2.7h1.2l2.1,6.7l2.2-6.7h1.3l-2.8,8.2H14L12.6,70.6z"/>
	<path d="M21,66.5h1.4l2.7,8.2h-1.2l-0.6-1.8h-3.4l-0.6,1.8h-1.2L21,66.5z M20.2,71.9H23l-1.4-4.3L20.2,71.9z"/>
	<path d="M26.5,66.5h3.2c1.4,0,2.5,1,2.5,2.6c0,1.4-1,2.4-2.2,2.5c0.7,0.8,1.5,2.1,2.3,2.1c0.2,0,0.6-0.1,0.8-0.2l0.1,0.9
		c-0.3,0.2-0.8,0.3-1.2,0.3c-1.6,0-2.7-2.5-3.5-3.1h-0.9v3h-1.2V66.5z M27.7,70.7h1.8c0.9,0,1.5-0.6,1.5-1.6c0-1.1-0.7-1.6-1.5-1.6
		h-1.8V70.7z"/>
	<path d="M34.5,66.5h2.9c2.1,0,3.6,1.5,3.6,4.1c0,2.6-1.5,4.1-3.6,4.1h-2.9V66.5z M37.3,73.6c1.5,0,2.5-1.1,2.5-3c0-2-1-3.1-2.5-3.1
		h-1.6v6.1H37.3z"/>
	<path d="M42.9,66.5h3.2c1.4,0,2.5,1,2.5,2.6c0,1.4-1,2.4-2.2,2.5c0.7,0.8,1.5,2.1,2.3,2.1c0.2,0,0.6-0.1,0.8-0.2l0.1,0.9
		c-0.3,0.2-0.8,0.3-1.2,0.3c-1.6,0-2.7-2.5-3.5-3.1h-0.9v3h-1.2V66.5z M44.1,70.7h1.8c0.9,0,1.5-0.6,1.5-1.6c0-1.1-0.7-1.6-1.5-1.6
		h-1.8V70.7z"/>
	<path d="M53.9,66.4c2.1,0,3.6,1.7,3.6,4.2c0,2.5-1.4,4.2-3.6,4.2c-2.1,0-3.6-1.7-3.6-4.2C50.4,68.1,51.8,66.4,53.9,66.4z
		 M53.9,73.7c1.4,0,2.4-1.1,2.4-3.1c0-2-1-3.1-2.4-3.1c-1.4,0-2.4,1.1-2.4,3.1C51.5,72.6,52.5,73.7,53.9,73.7z"/>
	<path d="M59.4,66.5h2.8c1.5,0,2.4,0.7,2.4,2.1c0,0.9-0.4,1.5-1.1,1.8c1.1,0.2,1.7,0.9,1.7,2c0,1.4-0.9,2.2-2.4,2.2h-3.2V66.5z
		 M60.6,70H62c0.9,0,1.4-0.4,1.4-1.2c0-0.8-0.5-1.2-1.3-1.2h-1.4V70z M60.6,73.6h1.9c0.9,0,1.4-0.5,1.4-1.2c0-0.9-0.5-1.3-1.5-1.3
		h-1.7V73.6z"/>
	<path d="M66.9,74.7v-8.2h5.4v1H68v2.4h3.5v1H68v2.7h4.3v1H66.9z"/>
</g>
</svg>
